<mxfile host="app.diagrams.net" modified="2023-06-18T12:14:58.121Z" agent="Mozilla/5.0 (Windows NT 10.0; Win64; x64) AppleWebKit/537.36 (KHTML, like Gecko) Chrome/114.0.0.0 Safari/537.36" etag="dltHJVpXMPa34WfRIg2j" version="21.3.5" type="device" pages="2">
  <diagram name="‫עמוד-1‬" id="LKGR4KkCnlk9KDEvNelI">
    <mxGraphModel dx="3088" dy="1933" grid="1" gridSize="10" guides="1" tooltips="1" connect="1" arrows="1" fold="1" page="1" pageScale="1" pageWidth="827" pageHeight="1169" math="0" shadow="0">
      <root>
        <mxCell id="0" />
        <mxCell id="1" parent="0" />
        <mxCell id="KMiK-50AtJway8__Ii_P-8" style="edgeStyle=orthogonalEdgeStyle;rounded=0;orthogonalLoop=1;jettySize=auto;html=1;exitX=1;exitY=0.25;exitDx=0;exitDy=0;entryX=0;entryY=0.5;entryDx=0;entryDy=0;endArrow=none;endFill=0;labelBackgroundColor=none;fontColor=default;" parent="1" target="KMiK-50AtJway8__Ii_P-30" edge="1">
          <mxGeometry relative="1" as="geometry">
            <mxPoint x="457.5" y="430.5" as="sourcePoint" />
            <mxPoint x="1170" y="544" as="targetPoint" />
            <Array as="points">
              <mxPoint x="1070" y="431" />
              <mxPoint x="1070" y="545" />
              <mxPoint x="1140" y="545" />
            </Array>
          </mxGeometry>
        </mxCell>
        <mxCell id="KMiK-50AtJway8__Ii_P-13" value="owner" style="edgeLabel;html=1;align=center;verticalAlign=middle;resizable=0;points=[];labelBackgroundColor=none;" parent="KMiK-50AtJway8__Ii_P-8" vertex="1" connectable="0">
          <mxGeometry x="0.7466" y="1" relative="1" as="geometry">
            <mxPoint y="5" as="offset" />
          </mxGeometry>
        </mxCell>
        <mxCell id="KMiK-50AtJway8__Ii_P-16" value="0..n" style="edgeLabel;html=1;align=center;verticalAlign=middle;resizable=0;points=[];labelBackgroundColor=none;" parent="KMiK-50AtJway8__Ii_P-8" vertex="1" connectable="0">
          <mxGeometry x="-0.9576" y="2" relative="1" as="geometry">
            <mxPoint as="offset" />
          </mxGeometry>
        </mxCell>
        <mxCell id="KMiK-50AtJway8__Ii_P-21" value="0..n" style="edgeLabel;html=1;align=center;verticalAlign=middle;resizable=0;points=[];labelBackgroundColor=none;" parent="KMiK-50AtJway8__Ii_P-8" vertex="1" connectable="0">
          <mxGeometry x="0.9324" relative="1" as="geometry">
            <mxPoint y="-2" as="offset" />
          </mxGeometry>
        </mxCell>
        <mxCell id="KMiK-50AtJway8__Ii_P-7" style="edgeStyle=orthogonalEdgeStyle;rounded=0;orthogonalLoop=1;jettySize=auto;html=1;exitX=1;exitY=0.25;exitDx=0;exitDy=0;entryX=0;entryY=0.25;entryDx=0;entryDy=0;endArrow=none;endFill=0;labelBackgroundColor=none;fontColor=default;" parent="1" target="KMiK-50AtJway8__Ii_P-30" edge="1">
          <mxGeometry relative="1" as="geometry">
            <mxPoint x="458" y="410.08" as="sourcePoint" />
            <mxPoint x="1232" y="410.08" as="targetPoint" />
            <Array as="points">
              <mxPoint x="1110" y="410" />
              <mxPoint x="1110" y="525" />
            </Array>
          </mxGeometry>
        </mxCell>
        <mxCell id="KMiK-50AtJway8__Ii_P-12" value="manager" style="edgeLabel;html=1;align=center;verticalAlign=middle;resizable=0;points=[];labelBackgroundColor=none;" parent="KMiK-50AtJway8__Ii_P-7" vertex="1" connectable="0">
          <mxGeometry x="0.7465" y="-2" relative="1" as="geometry">
            <mxPoint x="-8" y="46" as="offset" />
          </mxGeometry>
        </mxCell>
        <mxCell id="KMiK-50AtJway8__Ii_P-15" value="0..n" style="edgeLabel;html=1;align=center;verticalAlign=middle;resizable=0;points=[];labelBackgroundColor=none;" parent="KMiK-50AtJway8__Ii_P-7" vertex="1" connectable="0">
          <mxGeometry x="-0.9564" relative="1" as="geometry">
            <mxPoint as="offset" />
          </mxGeometry>
        </mxCell>
        <mxCell id="KMiK-50AtJway8__Ii_P-19" value="0..n" style="edgeLabel;html=1;align=center;verticalAlign=middle;resizable=0;points=[];labelBackgroundColor=none;" parent="KMiK-50AtJway8__Ii_P-7" vertex="1" connectable="0">
          <mxGeometry x="0.9274" y="2" relative="1" as="geometry">
            <mxPoint x="-5" y="-5" as="offset" />
          </mxGeometry>
        </mxCell>
        <mxCell id="KMiK-50AtJway8__Ii_P-6" style="edgeStyle=orthogonalEdgeStyle;rounded=0;orthogonalLoop=1;jettySize=auto;html=1;exitX=1;exitY=0.25;exitDx=0;exitDy=0;entryX=0.073;entryY=-0.003;entryDx=0;entryDy=0;endArrow=none;endFill=0;labelBackgroundColor=none;fontColor=default;entryPerimeter=0;" parent="1" source="xmApiVG4KR4Wac9X-xb9-1" target="KMiK-50AtJway8__Ii_P-30" edge="1">
          <mxGeometry relative="1" as="geometry">
            <Array as="points">
              <mxPoint x="458" y="393" />
              <mxPoint x="1150" y="393" />
            </Array>
          </mxGeometry>
        </mxCell>
        <mxCell id="KMiK-50AtJway8__Ii_P-11" value="founder" style="edgeLabel;html=1;align=center;verticalAlign=middle;resizable=0;points=[];labelBackgroundColor=none;" parent="KMiK-50AtJway8__Ii_P-6" vertex="1" connectable="0">
          <mxGeometry x="0.7957" y="1" relative="1" as="geometry">
            <mxPoint x="-11" y="49" as="offset" />
          </mxGeometry>
        </mxCell>
        <mxCell id="KMiK-50AtJway8__Ii_P-14" value="0..n" style="edgeLabel;html=1;align=center;verticalAlign=middle;resizable=0;points=[];labelBackgroundColor=none;" parent="KMiK-50AtJway8__Ii_P-6" vertex="1" connectable="0">
          <mxGeometry x="-0.9564" y="1" relative="1" as="geometry">
            <mxPoint x="11" as="offset" />
          </mxGeometry>
        </mxCell>
        <mxCell id="KMiK-50AtJway8__Ii_P-17" value="1..n" style="edgeLabel;html=1;align=center;verticalAlign=middle;resizable=0;points=[];labelBackgroundColor=none;" parent="KMiK-50AtJway8__Ii_P-6" vertex="1" connectable="0">
          <mxGeometry x="0.925" y="2" relative="1" as="geometry">
            <mxPoint x="-2" y="16" as="offset" />
          </mxGeometry>
        </mxCell>
        <mxCell id="KMiK-50AtJway8__Ii_P-23" style="edgeStyle=orthogonalEdgeStyle;rounded=0;orthogonalLoop=1;jettySize=auto;html=1;exitX=0.75;exitY=1;exitDx=0;exitDy=0;entryX=0;entryY=0.5;entryDx=0;entryDy=0;endArrow=none;endFill=0;labelBackgroundColor=none;fontColor=default;" parent="1" source="xmApiVG4KR4Wac9X-xb9-1" target="KMiK-50AtJway8__Ii_P-1" edge="1">
          <mxGeometry relative="1" as="geometry">
            <Array as="points">
              <mxPoint x="428" y="450.5" />
              <mxPoint x="730" y="450.5" />
              <mxPoint x="730" y="560.5" />
            </Array>
          </mxGeometry>
        </mxCell>
        <mxCell id="KMiK-50AtJway8__Ii_P-64" style="edgeStyle=orthogonalEdgeStyle;rounded=0;orthogonalLoop=1;jettySize=auto;html=1;exitX=0.75;exitY=1;exitDx=0;exitDy=0;entryX=0;entryY=0.5;entryDx=0;entryDy=0;labelBackgroundColor=none;fontColor=default;" parent="1" source="KMiK-50AtJway8__Ii_P-1" target="xmApiVG4KR4Wac9X-xb9-26" edge="1">
          <mxGeometry relative="1" as="geometry">
            <Array as="points">
              <mxPoint x="993" y="720" />
            </Array>
          </mxGeometry>
        </mxCell>
        <mxCell id="AbIhETK-aJziHINcXdsH-45" style="edgeStyle=orthogonalEdgeStyle;rounded=0;orthogonalLoop=1;jettySize=auto;html=1;exitX=0.75;exitY=1;exitDx=0;exitDy=0;entryX=0.5;entryY=0;entryDx=0;entryDy=0;" parent="1" source="xmApiVG4KR4Wac9X-xb9-1" target="BNux4O6D-jJJjoNCT-0A-25" edge="1">
          <mxGeometry relative="1" as="geometry">
            <Array as="points">
              <mxPoint x="428" y="437" />
              <mxPoint x="428" y="441" />
              <mxPoint x="830" y="441" />
              <mxPoint x="830" y="910" />
              <mxPoint x="1304" y="910" />
              <mxPoint x="1304" y="969" />
            </Array>
          </mxGeometry>
        </mxCell>
        <mxCell id="AbIhETK-aJziHINcXdsH-64" value="0..n" style="edgeStyle=orthogonalEdgeStyle;rounded=0;orthogonalLoop=1;jettySize=auto;html=1;exitX=0;exitY=0.75;exitDx=0;exitDy=0;entryX=0.5;entryY=0;entryDx=0;entryDy=0;" parent="1" source="xmApiVG4KR4Wac9X-xb9-1" target="AbIhETK-aJziHINcXdsH-50" edge="1">
          <mxGeometry relative="1" as="geometry">
            <Array as="points">
              <mxPoint x="364" y="413" />
              <mxPoint x="364" y="420" />
              <mxPoint x="-130" y="420" />
            </Array>
          </mxGeometry>
        </mxCell>
        <mxCell id="BGvg6Na35vpkmnGcbQYi-2" style="edgeStyle=orthogonalEdgeStyle;rounded=0;orthogonalLoop=1;jettySize=auto;html=1;exitX=0.75;exitY=0;exitDx=0;exitDy=0;entryX=0.343;entryY=0;entryDx=0;entryDy=0;entryPerimeter=0;endArrow=none;endFill=0;" parent="1" source="xmApiVG4KR4Wac9X-xb9-1" target="KMiK-50AtJway8__Ii_P-30" edge="1">
          <mxGeometry relative="1" as="geometry">
            <Array as="points">
              <mxPoint x="411" y="160" />
              <mxPoint x="1110" y="160" />
              <mxPoint x="1110" y="330" />
              <mxPoint x="1190" y="330" />
              <mxPoint x="1190" y="510" />
            </Array>
          </mxGeometry>
        </mxCell>
        <mxCell id="BGvg6Na35vpkmnGcbQYi-3" value="0..n" style="edgeLabel;html=1;align=center;verticalAlign=middle;resizable=0;points=[];" parent="BGvg6Na35vpkmnGcbQYi-2" vertex="1" connectable="0">
          <mxGeometry x="0.9631" y="-1" relative="1" as="geometry">
            <mxPoint y="-4" as="offset" />
          </mxGeometry>
        </mxCell>
        <mxCell id="xmApiVG4KR4Wac9X-xb9-1" value="&amp;lt;persistent&amp;gt;&lt;br&gt;Store" style="rounded=0;whiteSpace=wrap;html=1;labelBackgroundColor=none;" parent="1" vertex="1">
          <mxGeometry x="270" y="340" width="188" height="97.5" as="geometry" />
        </mxCell>
        <mxCell id="xmApiVG4KR4Wac9X-xb9-2" value="&amp;lt;persistent&amp;gt;&lt;br&gt;Product" style="rounded=0;whiteSpace=wrap;html=1;labelBackgroundColor=none;" parent="1" vertex="1">
          <mxGeometry x="304" y="578.96" width="120" height="60" as="geometry" />
        </mxCell>
        <mxCell id="xmApiVG4KR4Wac9X-xb9-23" value="&amp;lt;persistent&amp;gt;&lt;br&gt;StoreBasket" style="rounded=0;whiteSpace=wrap;html=1;labelBackgroundColor=none;" parent="1" vertex="1">
          <mxGeometry x="1660" y="578.96" width="110" height="60" as="geometry" />
        </mxCell>
        <mxCell id="xmApiVG4KR4Wac9X-xb9-25" value="&amp;lt;persistent&amp;gt;&lt;br&gt;UserCart" style="rounded=0;whiteSpace=wrap;html=1;labelBackgroundColor=none;" parent="1" vertex="1">
          <mxGeometry x="1630" y="426.75" width="110" height="60" as="geometry" />
        </mxCell>
        <mxCell id="xmApiVG4KR4Wac9X-xb9-26" value="TransactionHistory" style="rounded=0;whiteSpace=wrap;html=1;labelBackgroundColor=none;" parent="1" vertex="1">
          <mxGeometry x="1030" y="690" width="120" height="60" as="geometry" />
        </mxCell>
        <mxCell id="xmApiVG4KR4Wac9X-xb9-29" value="&amp;lt;&amp;lt;interface&amp;gt;&amp;gt;&lt;br&gt;PaymentService" style="rounded=0;whiteSpace=wrap;html=1;labelBackgroundColor=none;" parent="1" vertex="1">
          <mxGeometry x="-50.00000000000001" y="959.25" width="180" height="40" as="geometry" />
        </mxCell>
        <mxCell id="xmApiVG4KR4Wac9X-xb9-33" value="UserPrivacy/Security" style="rounded=0;whiteSpace=wrap;html=1;labelBackgroundColor=none;" parent="1" vertex="1">
          <mxGeometry x="1427.5" y="300" width="132.5" height="52" as="geometry" />
        </mxCell>
        <mxCell id="xmApiVG4KR4Wac9X-xb9-38" value="&amp;lt;persistent&amp;gt;&lt;br&gt;ProductTransaction" style="rounded=0;whiteSpace=wrap;html=1;labelBackgroundColor=none;" parent="1" vertex="1">
          <mxGeometry x="1030" y="790" width="120" height="52" as="geometry" />
        </mxCell>
        <mxCell id="63J3mPtgemWwUS_hdQk6-4" value="&amp;lt;&amp;lt;singleton&amp;gt;&amp;gt;&lt;br&gt;Logger" style="rounded=0;whiteSpace=wrap;html=1;labelBackgroundColor=none;" parent="1" vertex="1">
          <mxGeometry x="1530.06" y="974.25" width="110" height="30" as="geometry" />
        </mxCell>
        <mxCell id="nmcaV0K1PUl0ebAdsXiQ-1" value="" style="endArrow=none;html=1;rounded=0;entryX=0.5;entryY=1;entryDx=0;entryDy=0;exitX=0.5;exitY=0;exitDx=0;exitDy=0;endFill=0;labelBackgroundColor=none;fontColor=default;edgeStyle=orthogonalEdgeStyle;" parent="1" source="xmApiVG4KR4Wac9X-xb9-2" target="xmApiVG4KR4Wac9X-xb9-1" edge="1">
          <mxGeometry width="50" height="50" relative="1" as="geometry">
            <mxPoint x="360.5" y="648" as="sourcePoint" />
            <mxPoint x="398.1999999999998" y="585.1199999999999" as="targetPoint" />
          </mxGeometry>
        </mxCell>
        <mxCell id="nmcaV0K1PUl0ebAdsXiQ-3" value="1" style="edgeLabel;html=1;align=center;verticalAlign=middle;resizable=0;points=[];labelBackgroundColor=none;" parent="nmcaV0K1PUl0ebAdsXiQ-1" vertex="1" connectable="0">
          <mxGeometry x="0.576" relative="1" as="geometry">
            <mxPoint x="-11" y="-3" as="offset" />
          </mxGeometry>
        </mxCell>
        <mxCell id="nmcaV0K1PUl0ebAdsXiQ-4" value="0..n" style="edgeLabel;html=1;align=center;verticalAlign=middle;resizable=0;points=[];labelBackgroundColor=none;" parent="nmcaV0K1PUl0ebAdsXiQ-1" vertex="1" connectable="0">
          <mxGeometry x="-0.7398" relative="1" as="geometry">
            <mxPoint x="20" y="5" as="offset" />
          </mxGeometry>
        </mxCell>
        <mxCell id="sHBZC4CmwUmnVrZ-BZ2X-26" value="" style="endArrow=none;html=1;rounded=0;entryX=0.75;entryY=1;entryDx=0;entryDy=0;exitX=0.5;exitY=0;exitDx=0;exitDy=0;edgeStyle=orthogonalEdgeStyle;startArrow=block;startFill=1;labelBackgroundColor=none;fontColor=default;" parent="1" source="xmApiVG4KR4Wac9X-xb9-23" target="xmApiVG4KR4Wac9X-xb9-25" edge="1">
          <mxGeometry width="50" height="50" relative="1" as="geometry">
            <mxPoint x="1525" y="601.25" as="sourcePoint" />
            <mxPoint x="1575" y="551.25" as="targetPoint" />
          </mxGeometry>
        </mxCell>
        <mxCell id="sHBZC4CmwUmnVrZ-BZ2X-27" value="1" style="edgeLabel;html=1;align=center;verticalAlign=middle;resizable=0;points=[];labelBackgroundColor=none;" parent="sHBZC4CmwUmnVrZ-BZ2X-26" vertex="1" connectable="0">
          <mxGeometry x="0.7747" relative="1" as="geometry">
            <mxPoint x="-14" y="3" as="offset" />
          </mxGeometry>
        </mxCell>
        <mxCell id="sHBZC4CmwUmnVrZ-BZ2X-28" value="0..n" style="edgeLabel;html=1;align=center;verticalAlign=middle;resizable=0;points=[];fontSize=12;labelBackgroundColor=none;" parent="sHBZC4CmwUmnVrZ-BZ2X-26" vertex="1" connectable="0">
          <mxGeometry x="-0.6697" relative="1" as="geometry">
            <mxPoint x="-24" y="-6" as="offset" />
          </mxGeometry>
        </mxCell>
        <mxCell id="sHBZC4CmwUmnVrZ-BZ2X-48" value="" style="endArrow=none;html=1;rounded=0;entryX=0.5;entryY=1;entryDx=0;entryDy=0;exitX=0.5;exitY=0;exitDx=0;exitDy=0;labelBackgroundColor=none;fontColor=default;edgeStyle=orthogonalEdgeStyle;" parent="1" source="xmApiVG4KR4Wac9X-xb9-38" target="xmApiVG4KR4Wac9X-xb9-26" edge="1">
          <mxGeometry width="50" height="50" relative="1" as="geometry">
            <mxPoint x="742" y="324" as="sourcePoint" />
            <mxPoint x="792" y="274" as="targetPoint" />
          </mxGeometry>
        </mxCell>
        <mxCell id="sHBZC4CmwUmnVrZ-BZ2X-50" value="1..n" style="edgeLabel;html=1;align=center;verticalAlign=middle;resizable=0;points=[];labelBackgroundColor=none;" parent="sHBZC4CmwUmnVrZ-BZ2X-48" vertex="1" connectable="0">
          <mxGeometry x="-0.4909" y="2" relative="1" as="geometry">
            <mxPoint as="offset" />
          </mxGeometry>
        </mxCell>
        <mxCell id="sHBZC4CmwUmnVrZ-BZ2X-51" value="1" style="edgeLabel;html=1;align=center;verticalAlign=middle;resizable=0;points=[];labelBackgroundColor=none;" parent="sHBZC4CmwUmnVrZ-BZ2X-48" vertex="1" connectable="0">
          <mxGeometry x="0.6" y="-2" relative="1" as="geometry">
            <mxPoint as="offset" />
          </mxGeometry>
        </mxCell>
        <mxCell id="BNux4O6D-jJJjoNCT-0A-3" style="edgeStyle=orthogonalEdgeStyle;rounded=0;orthogonalLoop=1;jettySize=auto;html=1;exitX=0.5;exitY=0;exitDx=0;exitDy=0;entryX=0.5;entryY=1;entryDx=0;entryDy=0;endArrow=block;endFill=0;labelBackgroundColor=none;fontColor=default;" parent="1" source="BNux4O6D-jJJjoNCT-0A-1" target="xmApiVG4KR4Wac9X-xb9-29" edge="1">
          <mxGeometry relative="1" as="geometry" />
        </mxCell>
        <mxCell id="BNux4O6D-jJJjoNCT-0A-5" style="edgeStyle=orthogonalEdgeStyle;rounded=0;orthogonalLoop=1;jettySize=auto;html=1;exitX=0;exitY=0.5;exitDx=0;exitDy=0;entryX=0;entryY=0.5;entryDx=0;entryDy=0;labelBackgroundColor=none;fontColor=default;" parent="1" source="BNux4O6D-jJJjoNCT-0A-1" target="xmApiVG4KR4Wac9X-xb9-29" edge="1">
          <mxGeometry relative="1" as="geometry" />
        </mxCell>
        <mxCell id="BNux4O6D-jJJjoNCT-0A-1" value="PaymentServiceProxy" style="rounded=0;whiteSpace=wrap;html=1;labelBackgroundColor=none;" parent="1" vertex="1">
          <mxGeometry x="-130" y="1089.25" width="130" height="30" as="geometry" />
        </mxCell>
        <mxCell id="BNux4O6D-jJJjoNCT-0A-4" style="edgeStyle=orthogonalEdgeStyle;rounded=0;orthogonalLoop=1;jettySize=auto;html=1;exitX=0.5;exitY=0;exitDx=0;exitDy=0;endArrow=block;endFill=0;labelBackgroundColor=none;fontColor=default;" parent="1" source="BNux4O6D-jJJjoNCT-0A-2" edge="1">
          <mxGeometry relative="1" as="geometry">
            <mxPoint x="40" y="999.25" as="targetPoint" />
          </mxGeometry>
        </mxCell>
        <mxCell id="BNux4O6D-jJJjoNCT-0A-7" style="edgeStyle=orthogonalEdgeStyle;rounded=0;orthogonalLoop=1;jettySize=auto;html=1;entryX=0;entryY=0.5;entryDx=0;entryDy=0;labelBackgroundColor=none;fontColor=default;" parent="1" source="BNux4O6D-jJJjoNCT-0A-2" target="BNux4O6D-jJJjoNCT-0A-6" edge="1">
          <mxGeometry relative="1" as="geometry" />
        </mxCell>
        <mxCell id="BNux4O6D-jJJjoNCT-0A-2" value="PaymentServiceAdapter" style="rounded=0;whiteSpace=wrap;html=1;labelBackgroundColor=none;" parent="1" vertex="1">
          <mxGeometry x="70" y="1089.25" width="170" height="30" as="geometry" />
        </mxCell>
        <mxCell id="BNux4O6D-jJJjoNCT-0A-6" value="PaymentService" style="rounded=0;whiteSpace=wrap;html=1;labelBackgroundColor=none;" parent="1" vertex="1">
          <mxGeometry x="307" y="1089.25" width="110" height="30" as="geometry" />
        </mxCell>
        <mxCell id="BNux4O6D-jJJjoNCT-0A-8" value="&amp;lt;&amp;lt;interface&amp;gt;&amp;gt;&lt;br&gt;SupplyService" style="rounded=0;whiteSpace=wrap;html=1;labelBackgroundColor=none;" parent="1" vertex="1">
          <mxGeometry x="610.0000000000001" y="959.25" width="180" height="40" as="geometry" />
        </mxCell>
        <mxCell id="BNux4O6D-jJJjoNCT-0A-9" style="edgeStyle=orthogonalEdgeStyle;rounded=0;orthogonalLoop=1;jettySize=auto;html=1;exitX=0.5;exitY=0;exitDx=0;exitDy=0;entryX=0.5;entryY=1;entryDx=0;entryDy=0;endArrow=block;endFill=0;labelBackgroundColor=none;fontColor=default;" parent="1" source="BNux4O6D-jJJjoNCT-0A-11" target="BNux4O6D-jJJjoNCT-0A-8" edge="1">
          <mxGeometry relative="1" as="geometry" />
        </mxCell>
        <mxCell id="BNux4O6D-jJJjoNCT-0A-10" style="edgeStyle=orthogonalEdgeStyle;rounded=0;orthogonalLoop=1;jettySize=auto;html=1;exitX=0;exitY=0.5;exitDx=0;exitDy=0;entryX=0;entryY=0.75;entryDx=0;entryDy=0;labelBackgroundColor=none;fontColor=default;" parent="1" source="BNux4O6D-jJJjoNCT-0A-11" target="BNux4O6D-jJJjoNCT-0A-8" edge="1">
          <mxGeometry relative="1" as="geometry" />
        </mxCell>
        <mxCell id="BNux4O6D-jJJjoNCT-0A-11" value="SupplyServiceProxy" style="rounded=0;whiteSpace=wrap;html=1;labelBackgroundColor=none;" parent="1" vertex="1">
          <mxGeometry x="530" y="1089.25" width="130" height="30" as="geometry" />
        </mxCell>
        <mxCell id="BNux4O6D-jJJjoNCT-0A-12" style="edgeStyle=orthogonalEdgeStyle;rounded=0;orthogonalLoop=1;jettySize=auto;html=1;exitX=0.5;exitY=0;exitDx=0;exitDy=0;endArrow=block;endFill=0;labelBackgroundColor=none;fontColor=default;" parent="1" source="BNux4O6D-jJJjoNCT-0A-14" edge="1">
          <mxGeometry relative="1" as="geometry">
            <mxPoint x="700.0000000000001" y="999.25" as="targetPoint" />
          </mxGeometry>
        </mxCell>
        <mxCell id="BNux4O6D-jJJjoNCT-0A-13" style="edgeStyle=orthogonalEdgeStyle;rounded=0;orthogonalLoop=1;jettySize=auto;html=1;entryX=0;entryY=0.5;entryDx=0;entryDy=0;labelBackgroundColor=none;fontColor=default;" parent="1" source="BNux4O6D-jJJjoNCT-0A-14" target="BNux4O6D-jJJjoNCT-0A-15" edge="1">
          <mxGeometry relative="1" as="geometry" />
        </mxCell>
        <mxCell id="BNux4O6D-jJJjoNCT-0A-14" value="SupplyServiceAdapter" style="rounded=0;whiteSpace=wrap;html=1;labelBackgroundColor=none;" parent="1" vertex="1">
          <mxGeometry x="730.0000000000001" y="1089.25" width="170" height="30" as="geometry" />
        </mxCell>
        <mxCell id="BNux4O6D-jJJjoNCT-0A-15" value="SupplyService" style="rounded=0;whiteSpace=wrap;html=1;labelBackgroundColor=none;" parent="1" vertex="1">
          <mxGeometry x="967.0000000000001" y="1089.25" width="110" height="30" as="geometry" />
        </mxCell>
        <mxCell id="BNux4O6D-jJJjoNCT-0A-25" value="&amp;lt;&amp;lt;interface&amp;gt;&amp;gt;&lt;br&gt;NotificationService" style="rounded=0;whiteSpace=wrap;html=1;labelBackgroundColor=none;" parent="1" vertex="1">
          <mxGeometry x="1220" y="969.25" width="180" height="40" as="geometry" />
        </mxCell>
        <mxCell id="BNux4O6D-jJJjoNCT-0A-26" style="edgeStyle=orthogonalEdgeStyle;rounded=0;orthogonalLoop=1;jettySize=auto;html=1;exitX=0.5;exitY=0;exitDx=0;exitDy=0;entryX=0.5;entryY=1;entryDx=0;entryDy=0;endArrow=block;endFill=0;labelBackgroundColor=none;fontColor=default;" parent="1" source="BNux4O6D-jJJjoNCT-0A-28" target="BNux4O6D-jJJjoNCT-0A-25" edge="1">
          <mxGeometry relative="1" as="geometry" />
        </mxCell>
        <mxCell id="BNux4O6D-jJJjoNCT-0A-27" style="edgeStyle=orthogonalEdgeStyle;rounded=0;orthogonalLoop=1;jettySize=auto;html=1;exitX=0;exitY=0.5;exitDx=0;exitDy=0;entryX=0;entryY=0.5;entryDx=0;entryDy=0;labelBackgroundColor=none;fontColor=default;" parent="1" source="BNux4O6D-jJJjoNCT-0A-28" target="BNux4O6D-jJJjoNCT-0A-25" edge="1">
          <mxGeometry relative="1" as="geometry" />
        </mxCell>
        <mxCell id="BNux4O6D-jJJjoNCT-0A-28" value="NotificationServiceProxy" style="rounded=0;whiteSpace=wrap;html=1;labelBackgroundColor=none;" parent="1" vertex="1">
          <mxGeometry x="1140" y="1099.25" width="140" height="30" as="geometry" />
        </mxCell>
        <mxCell id="BNux4O6D-jJJjoNCT-0A-29" style="edgeStyle=orthogonalEdgeStyle;rounded=0;orthogonalLoop=1;jettySize=auto;html=1;exitX=0.5;exitY=0;exitDx=0;exitDy=0;endArrow=block;endFill=0;labelBackgroundColor=none;fontColor=default;" parent="1" source="BNux4O6D-jJJjoNCT-0A-31" edge="1">
          <mxGeometry relative="1" as="geometry">
            <mxPoint x="1310" y="1009.25" as="targetPoint" />
          </mxGeometry>
        </mxCell>
        <mxCell id="BNux4O6D-jJJjoNCT-0A-30" style="edgeStyle=orthogonalEdgeStyle;rounded=0;orthogonalLoop=1;jettySize=auto;html=1;entryX=0;entryY=0.5;entryDx=0;entryDy=0;labelBackgroundColor=none;fontColor=default;" parent="1" source="BNux4O6D-jJJjoNCT-0A-31" target="BNux4O6D-jJJjoNCT-0A-32" edge="1">
          <mxGeometry relative="1" as="geometry" />
        </mxCell>
        <mxCell id="BNux4O6D-jJJjoNCT-0A-31" value="NotificationServiceAdapter" style="rounded=0;whiteSpace=wrap;html=1;labelBackgroundColor=none;" parent="1" vertex="1">
          <mxGeometry x="1340" y="1099.25" width="170" height="30" as="geometry" />
        </mxCell>
        <mxCell id="BNux4O6D-jJJjoNCT-0A-32" value="NotificationService" style="rounded=0;whiteSpace=wrap;html=1;labelBackgroundColor=none;" parent="1" vertex="1">
          <mxGeometry x="1577" y="1099.25" width="110" height="30" as="geometry" />
        </mxCell>
        <mxCell id="BNux4O6D-jJJjoNCT-0A-60" style="edgeStyle=orthogonalEdgeStyle;rounded=0;orthogonalLoop=1;jettySize=auto;html=1;exitX=1;exitY=0.25;exitDx=0;exitDy=0;entryX=0;entryY=0.5;entryDx=0;entryDy=0;labelBackgroundColor=none;fontColor=default;" parent="1" source="BNux4O6D-jJJjoNCT-0A-55" target="xmApiVG4KR4Wac9X-xb9-33" edge="1">
          <mxGeometry relative="1" as="geometry" />
        </mxCell>
        <mxCell id="BNux4O6D-jJJjoNCT-0A-61" value="1" style="edgeStyle=orthogonalEdgeStyle;rounded=0;orthogonalLoop=1;jettySize=auto;html=1;exitX=1.004;exitY=0.683;exitDx=0;exitDy=0;entryX=0;entryY=0.5;entryDx=0;entryDy=0;exitPerimeter=0;labelBackgroundColor=none;fontColor=default;" parent="1" source="BNux4O6D-jJJjoNCT-0A-55" target="xmApiVG4KR4Wac9X-xb9-25" edge="1">
          <mxGeometry x="0.8681" y="16" relative="1" as="geometry">
            <mxPoint as="offset" />
          </mxGeometry>
        </mxCell>
        <mxCell id="KMiK-50AtJway8__Ii_P-32" style="edgeStyle=orthogonalEdgeStyle;rounded=0;orthogonalLoop=1;jettySize=auto;html=1;exitX=0.5;exitY=1;exitDx=0;exitDy=0;entryX=0.5;entryY=0;entryDx=0;entryDy=0;endArrow=none;endFill=0;startArrow=block;startFill=0;labelBackgroundColor=none;fontColor=default;" parent="1" source="BNux4O6D-jJJjoNCT-0A-55" target="KMiK-50AtJway8__Ii_P-30" edge="1">
          <mxGeometry relative="1" as="geometry" />
        </mxCell>
        <mxCell id="KMiK-50AtJway8__Ii_P-33" style="edgeStyle=orthogonalEdgeStyle;rounded=0;orthogonalLoop=1;jettySize=auto;html=1;exitX=0.5;exitY=1;exitDx=0;exitDy=0;entryX=0.5;entryY=0;entryDx=0;entryDy=0;endArrow=none;endFill=0;startArrow=block;startFill=0;labelBackgroundColor=none;fontColor=default;" parent="1" source="BNux4O6D-jJJjoNCT-0A-55" target="KMiK-50AtJway8__Ii_P-31" edge="1">
          <mxGeometry relative="1" as="geometry" />
        </mxCell>
        <mxCell id="AbIhETK-aJziHINcXdsH-47" style="edgeStyle=orthogonalEdgeStyle;rounded=0;orthogonalLoop=1;jettySize=auto;html=1;exitX=0.75;exitY=1;exitDx=0;exitDy=0;entryX=0.5;entryY=0;entryDx=0;entryDy=0;" parent="1" source="BNux4O6D-jJJjoNCT-0A-55" target="BNux4O6D-jJJjoNCT-0A-25" edge="1">
          <mxGeometry relative="1" as="geometry">
            <Array as="points">
              <mxPoint x="1440" y="437" />
              <mxPoint x="1440" y="910" />
              <mxPoint x="1304" y="910" />
              <mxPoint x="1304" y="969" />
            </Array>
          </mxGeometry>
        </mxCell>
        <mxCell id="BNux4O6D-jJJjoNCT-0A-55" value="&amp;lt;Abstract&amp;gt;&lt;br&gt;User" style="rounded=0;whiteSpace=wrap;html=1;labelBackgroundColor=none;" parent="1" vertex="1">
          <mxGeometry x="1231.5" y="377.5" width="110" height="60" as="geometry" />
        </mxCell>
        <mxCell id="KMiK-50AtJway8__Ii_P-25" style="edgeStyle=orthogonalEdgeStyle;rounded=0;orthogonalLoop=1;jettySize=auto;html=1;exitX=0.5;exitY=1;exitDx=0;exitDy=0;endArrow=none;endFill=0;dashed=1;labelBackgroundColor=none;fontColor=default;" parent="1" source="gaa1k3u4q0_xv-_A5BAJ-2" edge="1">
          <mxGeometry relative="1" as="geometry">
            <mxPoint x="970" y="430" as="targetPoint" />
            <Array as="points">
              <mxPoint x="970" y="350" />
              <mxPoint x="970" y="350" />
            </Array>
          </mxGeometry>
        </mxCell>
        <mxCell id="KMiK-50AtJway8__Ii_P-26" value="association class" style="edgeLabel;html=1;align=center;verticalAlign=middle;resizable=0;points=[];labelBackgroundColor=none;" parent="KMiK-50AtJway8__Ii_P-25" vertex="1" connectable="0">
          <mxGeometry x="-0.7405" y="-2" relative="1" as="geometry">
            <mxPoint x="2" y="20" as="offset" />
          </mxGeometry>
        </mxCell>
        <mxCell id="gaa1k3u4q0_xv-_A5BAJ-2" value="&amp;lt;persistent&amp;gt;&lt;br style=&quot;border-color: var(--border-color);&quot;&gt;Permission" style="rounded=0;whiteSpace=wrap;html=1;labelBackgroundColor=none;" parent="1" vertex="1">
          <mxGeometry x="910" y="280.00000000000006" width="120" height="29.5" as="geometry" />
        </mxCell>
        <mxCell id="c1-SFfWlrFU9sEIXlx3X-1" value="1" style="edgeLabel;html=1;align=center;verticalAlign=middle;resizable=0;points=[];labelBackgroundColor=none;" parent="1" vertex="1" connectable="0">
          <mxGeometry x="1681.0000000000005" y="508.9642857142858" as="geometry">
            <mxPoint x="-130" y="-78" as="offset" />
          </mxGeometry>
        </mxCell>
        <mxCell id="OnIr4SSlqHqAaBlAEPrt-1" style="edgeStyle=orthogonalEdgeStyle;rounded=0;orthogonalLoop=1;jettySize=auto;html=1;exitX=1;exitY=0.5;exitDx=0;exitDy=0;entryX=0;entryY=0.75;entryDx=0;entryDy=0;endArrow=none;endFill=0;labelBackgroundColor=none;fontColor=default;" parent="1" source="KMiK-50AtJway8__Ii_P-1" target="KMiK-50AtJway8__Ii_P-30" edge="1">
          <mxGeometry relative="1" as="geometry">
            <Array as="points">
              <mxPoint x="1020" y="555.5" />
              <mxPoint x="1095" y="555.5" />
            </Array>
          </mxGeometry>
        </mxCell>
        <mxCell id="AbIhETK-aJziHINcXdsH-48" style="edgeStyle=orthogonalEdgeStyle;rounded=0;orthogonalLoop=1;jettySize=auto;html=1;exitX=0.5;exitY=1;exitDx=0;exitDy=0;entryX=0.5;entryY=0;entryDx=0;entryDy=0;" parent="1" source="KMiK-50AtJway8__Ii_P-1" target="xmApiVG4KR4Wac9X-xb9-29" edge="1">
          <mxGeometry relative="1" as="geometry">
            <Array as="points">
              <mxPoint x="965" y="880.5" />
              <mxPoint x="34" y="880.5" />
              <mxPoint x="34" y="959.5" />
            </Array>
          </mxGeometry>
        </mxCell>
        <mxCell id="AbIhETK-aJziHINcXdsH-49" style="edgeStyle=orthogonalEdgeStyle;rounded=0;orthogonalLoop=1;jettySize=auto;html=1;exitX=0.5;exitY=1;exitDx=0;exitDy=0;entryX=0.5;entryY=0;entryDx=0;entryDy=0;" parent="1" source="KMiK-50AtJway8__Ii_P-1" target="BNux4O6D-jJJjoNCT-0A-8" edge="1">
          <mxGeometry relative="1" as="geometry">
            <Array as="points">
              <mxPoint x="965" y="880.5" />
              <mxPoint x="694" y="880.5" />
              <mxPoint x="694" y="959.5" />
            </Array>
          </mxGeometry>
        </mxCell>
        <mxCell id="KMiK-50AtJway8__Ii_P-1" value="&amp;lt;&amp;lt;interface&amp;gt;&amp;gt;&lt;br&gt;Market" style="rounded=0;whiteSpace=wrap;html=1;labelBackgroundColor=none;" parent="1" vertex="1">
          <mxGeometry x="910" y="530.5" width="110" height="60" as="geometry" />
        </mxCell>
        <mxCell id="KMiK-50AtJway8__Ii_P-30" value="&amp;lt;persistent&amp;gt;&lt;br&gt;Member" style="rounded=0;whiteSpace=wrap;html=1;labelBackgroundColor=none;" parent="1" vertex="1">
          <mxGeometry x="1140" y="510" width="140" height="60" as="geometry" />
        </mxCell>
        <mxCell id="KMiK-50AtJway8__Ii_P-31" value="Guest" style="rounded=0;whiteSpace=wrap;html=1;labelBackgroundColor=none;" parent="1" vertex="1">
          <mxGeometry x="1300" y="510" width="110" height="60" as="geometry" />
        </mxCell>
        <mxCell id="KMiK-50AtJway8__Ii_P-44" value="SystemManager" style="rounded=0;whiteSpace=wrap;html=1;labelBackgroundColor=none;" parent="1" vertex="1">
          <mxGeometry x="1465" y="510" width="110" height="60" as="geometry" />
        </mxCell>
        <mxCell id="KMiK-50AtJway8__Ii_P-61" style="rounded=0;orthogonalLoop=1;jettySize=auto;html=1;exitX=0;exitY=1;exitDx=0;exitDy=0;exitPerimeter=0;entryX=1;entryY=0;entryDx=0;entryDy=0;dashed=1;endArrow=none;endFill=0;labelBackgroundColor=none;fontColor=default;" parent="1" source="KMiK-50AtJway8__Ii_P-56" target="xmApiVG4KR4Wac9X-xb9-23" edge="1">
          <mxGeometry relative="1" as="geometry" />
        </mxCell>
        <mxCell id="KMiK-50AtJway8__Ii_P-56" value="&lt;p style=&quot;margin:0px;margin-top:10px;margin-left:10px;text-align:left;&quot;&gt;&lt;b&gt;&lt;u&gt;OCL:&lt;/u&gt;&lt;/b&gt;&lt;br&gt;&lt;b&gt;for each StoreBasket sb:&amp;nbsp;&lt;/b&gt;&lt;br&gt;&lt;b&gt;sb belongs only to one store&lt;/b&gt;&lt;/p&gt;" style="shape=note;size=15;spacingLeft=5;html=1;overflow=fill;whiteSpace=wrap;labelBackgroundColor=none;" parent="1" vertex="1">
          <mxGeometry x="1800" y="503.75" width="180" height="66.25" as="geometry" />
        </mxCell>
        <mxCell id="bjbWTRETPKyBDtM3eHnH-1" value="&lt;b&gt;&lt;u&gt;&lt;font style=&quot;font-size: 42px;&quot;&gt;White Diagram&lt;/font&gt;&lt;/u&gt;&lt;/b&gt;" style="text;html=1;strokeColor=none;fillColor=none;align=center;verticalAlign=middle;whiteSpace=wrap;rounded=0;labelBackgroundColor=none;" parent="1" vertex="1">
          <mxGeometry x="750" y="-50" width="360" height="70" as="geometry" />
        </mxCell>
        <mxCell id="AbIhETK-aJziHINcXdsH-41" style="edgeStyle=orthogonalEdgeStyle;rounded=0;orthogonalLoop=1;jettySize=auto;html=1;exitX=0;exitY=0.25;exitDx=0;exitDy=0;entryX=0.5;entryY=0;entryDx=0;entryDy=0;" parent="1" source="xmApiVG4KR4Wac9X-xb9-1" target="AbIhETK-aJziHINcXdsH-1" edge="1">
          <mxGeometry relative="1" as="geometry" />
        </mxCell>
        <mxCell id="AbIhETK-aJziHINcXdsH-42" value="0..n" style="edgeLabel;html=1;align=center;verticalAlign=middle;resizable=0;points=[];" parent="AbIhETK-aJziHINcXdsH-41" vertex="1" connectable="0">
          <mxGeometry x="0.9453" relative="1" as="geometry">
            <mxPoint as="offset" />
          </mxGeometry>
        </mxCell>
        <mxCell id="AbIhETK-aJziHINcXdsH-1" value="&amp;lt;&amp;lt;interface&amp;gt;&amp;gt;&lt;br&gt;IDiscount" style="rounded=0;whiteSpace=wrap;html=1;labelBackgroundColor=none;" parent="1" vertex="1">
          <mxGeometry x="-740" y="470.5" width="120" height="60" as="geometry" />
        </mxCell>
        <mxCell id="AbIhETK-aJziHINcXdsH-2" value="&amp;lt;&amp;lt;abstract&amp;gt;&amp;gt;&lt;br&gt;&amp;lt;persistent&amp;gt;&lt;br&gt;SimpleDiscount" style="rounded=0;whiteSpace=wrap;html=1;labelBackgroundColor=none;" parent="1" vertex="1">
          <mxGeometry x="-880" y="638.96" width="120" height="60" as="geometry" />
        </mxCell>
        <mxCell id="AbIhETK-aJziHINcXdsH-3" value="XorDiscountRule" style="rounded=0;whiteSpace=wrap;html=1;labelBackgroundColor=none;" parent="1" vertex="1">
          <mxGeometry x="-720" y="884.25" width="120" height="60" as="geometry" />
        </mxCell>
        <mxCell id="AbIhETK-aJziHINcXdsH-4" value="MaxDiscountRule" style="rounded=0;whiteSpace=wrap;html=1;labelBackgroundColor=none;" parent="1" vertex="1">
          <mxGeometry x="-720" y="990" width="120" height="60" as="geometry" />
        </mxCell>
        <mxCell id="AbIhETK-aJziHINcXdsH-5" value="OrDiscountRule" style="rounded=0;whiteSpace=wrap;html=1;labelBackgroundColor=none;" parent="1" vertex="1">
          <mxGeometry x="-720" y="1099.25" width="120" height="60" as="geometry" />
        </mxCell>
        <mxCell id="AbIhETK-aJziHINcXdsH-6" value="IfThenDiscountRule" style="rounded=0;whiteSpace=wrap;html=1;labelBackgroundColor=none;" parent="1" vertex="1">
          <mxGeometry x="-460" y="1099.25" width="120" height="60" as="geometry" />
        </mxCell>
        <mxCell id="AbIhETK-aJziHINcXdsH-14" value="StoreDiscount" style="rounded=0;whiteSpace=wrap;html=1;labelBackgroundColor=none;" parent="1" vertex="1">
          <mxGeometry x="-1020" y="758.96" width="120" height="60" as="geometry" />
        </mxCell>
        <mxCell id="AbIhETK-aJziHINcXdsH-15" value="CategoryDiscount" style="rounded=0;whiteSpace=wrap;html=1;labelBackgroundColor=none;" parent="1" vertex="1">
          <mxGeometry x="-880" y="758.96" width="120" height="60" as="geometry" />
        </mxCell>
        <mxCell id="AbIhETK-aJziHINcXdsH-16" value="ProductDiscount" style="rounded=0;whiteSpace=wrap;html=1;labelBackgroundColor=none;" parent="1" vertex="1">
          <mxGeometry x="-740" y="758.96" width="120" height="60" as="geometry" />
        </mxCell>
        <mxCell id="AbIhETK-aJziHINcXdsH-21" value="AndDiscountRule" style="rounded=0;whiteSpace=wrap;html=1;labelBackgroundColor=none;" parent="1" vertex="1">
          <mxGeometry x="-460" y="990" width="120" height="60" as="geometry" />
        </mxCell>
        <mxCell id="AbIhETK-aJziHINcXdsH-22" value="AddDiscountRule" style="rounded=0;whiteSpace=wrap;html=1;labelBackgroundColor=none;" parent="1" vertex="1">
          <mxGeometry x="-460" y="884.25" width="120" height="60" as="geometry" />
        </mxCell>
        <mxCell id="AbIhETK-aJziHINcXdsH-34" value="&amp;lt;&amp;lt;abstract&amp;gt;&amp;gt;&lt;br&gt;&amp;lt;persistent&amp;gt;&lt;br&gt;Condition" style="rounded=0;whiteSpace=wrap;html=1;labelBackgroundColor=none;" parent="1" vertex="1">
          <mxGeometry x="-180" y="810.5" width="120" height="60" as="geometry" />
        </mxCell>
        <mxCell id="AbIhETK-aJziHINcXdsH-43" style="rounded=0;orthogonalLoop=1;jettySize=auto;html=1;exitX=0;exitY=1;exitDx=0;exitDy=0;exitPerimeter=0;entryX=1;entryY=0;entryDx=0;entryDy=0;dashed=1;endArrow=none;endFill=0;labelBackgroundColor=none;fontColor=default;" parent="1" edge="1">
          <mxGeometry relative="1" as="geometry">
            <mxPoint x="1640.06" y="974.25" as="targetPoint" />
            <mxPoint x="1700.0599999999995" y="940.5" as="sourcePoint" />
          </mxGeometry>
        </mxCell>
        <mxCell id="AbIhETK-aJziHINcXdsH-44" value="&lt;p style=&quot;margin:0px;margin-top:10px;margin-left:10px;text-align:left;&quot;&gt;&lt;b&gt;everyone talks to logger to much arrows&lt;/b&gt;&lt;/p&gt;" style="shape=note;size=15;spacingLeft=5;html=1;overflow=fill;whiteSpace=wrap;labelBackgroundColor=none;" parent="1" vertex="1">
          <mxGeometry x="1630" y="870.5" width="180" height="66.25" as="geometry" />
        </mxCell>
        <mxCell id="AbIhETK-aJziHINcXdsH-50" value="&amp;lt;&amp;lt;abstract&amp;gt;&amp;gt;&lt;br&gt;&amp;lt;persistent&amp;gt;&lt;br&gt;PurchaseRule" style="rounded=0;whiteSpace=wrap;html=1;labelBackgroundColor=none;" parent="1" vertex="1">
          <mxGeometry x="-190" y="508.96" width="120" height="60" as="geometry" />
        </mxCell>
        <mxCell id="AbIhETK-aJziHINcXdsH-57" style="edgeStyle=orthogonalEdgeStyle;rounded=0;orthogonalLoop=1;jettySize=auto;html=1;exitX=0.5;exitY=0;exitDx=0;exitDy=0;entryX=0.5;entryY=1;entryDx=0;entryDy=0;endArrow=block;endFill=0;" parent="1" source="AbIhETK-aJziHINcXdsH-51" target="AbIhETK-aJziHINcXdsH-50" edge="1">
          <mxGeometry relative="1" as="geometry" />
        </mxCell>
        <mxCell id="AbIhETK-aJziHINcXdsH-61" style="edgeStyle=orthogonalEdgeStyle;rounded=0;orthogonalLoop=1;jettySize=auto;html=1;exitX=0.5;exitY=1;exitDx=0;exitDy=0;entryX=0.75;entryY=0;entryDx=0;entryDy=0;" parent="1" source="AbIhETK-aJziHINcXdsH-51" edge="1" target="AbIhETK-aJziHINcXdsH-34">
          <mxGeometry relative="1" as="geometry">
            <mxPoint x="-130" y="758.96" as="targetPoint" />
            <Array as="points">
              <mxPoint x="-130" y="720" />
              <mxPoint x="-90" y="720" />
            </Array>
          </mxGeometry>
        </mxCell>
        <mxCell id="AbIhETK-aJziHINcXdsH-51" value="OrPurchaseRule" style="rounded=0;whiteSpace=wrap;html=1;labelBackgroundColor=none;" parent="1" vertex="1">
          <mxGeometry x="-190" y="638.96" width="120" height="60" as="geometry" />
        </mxCell>
        <mxCell id="AbIhETK-aJziHINcXdsH-54" style="edgeStyle=orthogonalEdgeStyle;rounded=0;orthogonalLoop=1;jettySize=auto;html=1;entryX=0.5;entryY=1;entryDx=0;entryDy=0;endArrow=block;endFill=0;" parent="1" source="AbIhETK-aJziHINcXdsH-52" target="AbIhETK-aJziHINcXdsH-50" edge="1">
          <mxGeometry relative="1" as="geometry">
            <Array as="points">
              <mxPoint x="-290" y="588.96" />
              <mxPoint x="-130" y="588.96" />
            </Array>
          </mxGeometry>
        </mxCell>
        <mxCell id="AbIhETK-aJziHINcXdsH-60" style="edgeStyle=orthogonalEdgeStyle;rounded=0;orthogonalLoop=1;jettySize=auto;html=1;exitX=0.5;exitY=1;exitDx=0;exitDy=0;entryX=0.75;entryY=0;entryDx=0;entryDy=0;" parent="1" source="AbIhETK-aJziHINcXdsH-52" target="AbIhETK-aJziHINcXdsH-34" edge="1">
          <mxGeometry relative="1" as="geometry">
            <Array as="points">
              <mxPoint x="-290" y="719" />
              <mxPoint x="-90" y="719" />
            </Array>
            <mxPoint x="-130" y="800" as="targetPoint" />
          </mxGeometry>
        </mxCell>
        <mxCell id="AbIhETK-aJziHINcXdsH-52" value="AndPurchaseRule" style="rounded=0;whiteSpace=wrap;html=1;labelBackgroundColor=none;" parent="1" vertex="1">
          <mxGeometry x="-350" y="638.96" width="120" height="60" as="geometry" />
        </mxCell>
        <mxCell id="AbIhETK-aJziHINcXdsH-58" style="edgeStyle=orthogonalEdgeStyle;rounded=0;orthogonalLoop=1;jettySize=auto;html=1;exitX=0.5;exitY=0;exitDx=0;exitDy=0;entryX=0.5;entryY=1;entryDx=0;entryDy=0;endArrow=block;endFill=0;" parent="1" source="AbIhETK-aJziHINcXdsH-53" target="AbIhETK-aJziHINcXdsH-50" edge="1">
          <mxGeometry relative="1" as="geometry">
            <Array as="points">
              <mxPoint x="30" y="588.96" />
              <mxPoint x="-130" y="588.96" />
            </Array>
          </mxGeometry>
        </mxCell>
        <mxCell id="AbIhETK-aJziHINcXdsH-62" style="edgeStyle=orthogonalEdgeStyle;rounded=0;orthogonalLoop=1;jettySize=auto;html=1;entryX=0.75;entryY=0;entryDx=0;entryDy=0;" parent="1" source="AbIhETK-aJziHINcXdsH-53" target="AbIhETK-aJziHINcXdsH-34" edge="1">
          <mxGeometry relative="1" as="geometry">
            <Array as="points">
              <mxPoint x="30" y="719" />
              <mxPoint x="-90" y="719" />
            </Array>
            <mxPoint x="-130" y="800" as="targetPoint" />
          </mxGeometry>
        </mxCell>
        <mxCell id="AbIhETK-aJziHINcXdsH-63" value="0..n" style="edgeLabel;html=1;align=center;verticalAlign=middle;resizable=0;points=[];" parent="AbIhETK-aJziHINcXdsH-62" vertex="1" connectable="0">
          <mxGeometry x="0.7" y="-3" relative="1" as="geometry">
            <mxPoint x="2" y="14" as="offset" />
          </mxGeometry>
        </mxCell>
        <mxCell id="AbIhETK-aJziHINcXdsH-53" value="IfThenPurchaseRule" style="rounded=0;whiteSpace=wrap;html=1;labelBackgroundColor=none;" parent="1" vertex="1">
          <mxGeometry x="-30" y="638.96" width="120" height="60" as="geometry" />
        </mxCell>
        <mxCell id="a7UhBMsVLeSZY9i_aQMt-1" value="&amp;lt;persistent&amp;gt;&lt;br style=&quot;border-color: var(--border-color);&quot;&gt;Offers" style="rounded=0;whiteSpace=wrap;html=1;labelBackgroundColor=none;" parent="1" vertex="1">
          <mxGeometry x="707" y="300.00000000000006" width="120" height="29.5" as="geometry" />
        </mxCell>
        <mxCell id="a7UhBMsVLeSZY9i_aQMt-2" value="" style="endArrow=none;html=1;rounded=0;edgeStyle=orthogonalEdgeStyle;exitX=1;exitY=0.25;exitDx=0;exitDy=0;entryX=0.25;entryY=0;entryDx=0;entryDy=0;" parent="1" source="xmApiVG4KR4Wac9X-xb9-1" target="KMiK-50AtJway8__Ii_P-30" edge="1">
          <mxGeometry width="50" height="50" relative="1" as="geometry">
            <mxPoint x="890" y="450" as="sourcePoint" />
            <mxPoint x="940" y="400" as="targetPoint" />
            <Array as="points">
              <mxPoint x="458" y="250" />
              <mxPoint x="1080" y="250" />
              <mxPoint x="1080" y="350" />
              <mxPoint x="1175" y="350" />
            </Array>
          </mxGeometry>
        </mxCell>
        <mxCell id="BGvg6Na35vpkmnGcbQYi-4" value="0..n" style="edgeLabel;html=1;align=center;verticalAlign=middle;resizable=0;points=[];" parent="a7UhBMsVLeSZY9i_aQMt-2" vertex="1" connectable="0">
          <mxGeometry x="0.9884" y="-1" relative="1" as="geometry">
            <mxPoint y="-5" as="offset" />
          </mxGeometry>
        </mxCell>
        <mxCell id="a7UhBMsVLeSZY9i_aQMt-3" style="edgeStyle=orthogonalEdgeStyle;rounded=0;orthogonalLoop=1;jettySize=auto;html=1;endArrow=none;endFill=0;dashed=1;labelBackgroundColor=none;fontColor=default;entryX=0.5;entryY=0;entryDx=0;entryDy=0;" parent="1" target="a7UhBMsVLeSZY9i_aQMt-1" edge="1">
          <mxGeometry relative="1" as="geometry">
            <mxPoint x="980" y="440" as="targetPoint" />
            <Array as="points">
              <mxPoint x="770" y="300" />
            </Array>
            <mxPoint x="770" y="250" as="sourcePoint" />
          </mxGeometry>
        </mxCell>
        <mxCell id="a7UhBMsVLeSZY9i_aQMt-4" value="association class" style="edgeLabel;html=1;align=center;verticalAlign=middle;resizable=0;points=[];labelBackgroundColor=none;" parent="a7UhBMsVLeSZY9i_aQMt-3" vertex="1" connectable="0">
          <mxGeometry x="-0.7405" y="-2" relative="1" as="geometry">
            <mxPoint x="2" y="20" as="offset" />
          </mxGeometry>
        </mxCell>
        <mxCell id="a7UhBMsVLeSZY9i_aQMt-5" value="0..n" style="edgeLabel;html=1;align=center;verticalAlign=middle;resizable=0;points=[];labelBackgroundColor=none;" parent="1" vertex="1" connectable="0">
          <mxGeometry x="440" y="388.755" as="geometry">
            <mxPoint x="5" y="-62" as="offset" />
          </mxGeometry>
        </mxCell>
        <mxCell id="BGvg6Na35vpkmnGcbQYi-5" value="&amp;lt;persistent&amp;gt;&lt;br&gt;OwnerAppoitmentRequest" style="rounded=0;whiteSpace=wrap;html=1;labelBackgroundColor=none;" parent="1" vertex="1">
          <mxGeometry x="677" y="200" width="150" height="39.5" as="geometry" />
        </mxCell>
        <mxCell id="BGvg6Na35vpkmnGcbQYi-6" style="edgeStyle=orthogonalEdgeStyle;rounded=0;orthogonalLoop=1;jettySize=auto;html=1;endArrow=none;endFill=0;dashed=1;labelBackgroundColor=none;fontColor=default;entryX=0.5;entryY=0;entryDx=0;entryDy=0;" parent="1" target="BGvg6Na35vpkmnGcbQYi-5" edge="1">
          <mxGeometry relative="1" as="geometry">
            <mxPoint x="963" y="350" as="targetPoint" />
            <Array as="points">
              <mxPoint x="753" y="190" />
              <mxPoint x="752" y="190" />
            </Array>
            <mxPoint x="753" y="160" as="sourcePoint" />
          </mxGeometry>
        </mxCell>
        <mxCell id="BGvg6Na35vpkmnGcbQYi-7" value="association class" style="edgeLabel;html=1;align=center;verticalAlign=middle;resizable=0;points=[];labelBackgroundColor=none;" parent="BGvg6Na35vpkmnGcbQYi-6" vertex="1" connectable="0">
          <mxGeometry x="-0.7405" y="-2" relative="1" as="geometry">
            <mxPoint x="2" y="20" as="offset" />
          </mxGeometry>
        </mxCell>
        <mxCell id="fDak4gC0axPjWhtpKBPF-1" value="&amp;lt;&amp;lt;abstract&amp;gt;&amp;gt;&lt;br&gt;&amp;lt;persistent&amp;gt;&lt;br&gt;CompositeDiscount" style="rounded=0;whiteSpace=wrap;html=1;labelBackgroundColor=none;" vertex="1" parent="1">
          <mxGeometry x="-590" y="638.96" width="120" height="60" as="geometry" />
        </mxCell>
        <mxCell id="fDak4gC0axPjWhtpKBPF-3" style="edgeStyle=orthogonalEdgeStyle;rounded=0;orthogonalLoop=1;jettySize=auto;html=1;entryX=0.5;entryY=1;entryDx=0;entryDy=0;endArrow=block;endFill=0;exitX=0.5;exitY=0;exitDx=0;exitDy=0;endSize=11;" edge="1" parent="1" source="AbIhETK-aJziHINcXdsH-2" target="AbIhETK-aJziHINcXdsH-1">
          <mxGeometry relative="1" as="geometry">
            <mxPoint x="-1130" y="1002" as="sourcePoint" />
            <mxPoint x="-810" y="709" as="targetPoint" />
          </mxGeometry>
        </mxCell>
        <mxCell id="fDak4gC0axPjWhtpKBPF-4" style="edgeStyle=orthogonalEdgeStyle;rounded=0;orthogonalLoop=1;jettySize=auto;html=1;entryX=0.5;entryY=1;entryDx=0;entryDy=0;endArrow=block;endFill=0;exitX=0.5;exitY=0;exitDx=0;exitDy=0;startSize=9;endSize=11;" edge="1" parent="1" source="fDak4gC0axPjWhtpKBPF-1" target="AbIhETK-aJziHINcXdsH-1">
          <mxGeometry relative="1" as="geometry">
            <mxPoint x="-810" y="649" as="sourcePoint" />
            <mxPoint x="-670" y="541" as="targetPoint" />
          </mxGeometry>
        </mxCell>
        <mxCell id="fDak4gC0axPjWhtpKBPF-5" style="edgeStyle=orthogonalEdgeStyle;rounded=0;orthogonalLoop=1;jettySize=auto;html=1;exitX=1;exitY=0.5;exitDx=0;exitDy=0;entryX=1;entryY=0.5;entryDx=0;entryDy=0;" edge="1" parent="1" source="fDak4gC0axPjWhtpKBPF-1" target="AbIhETK-aJziHINcXdsH-1">
          <mxGeometry relative="1" as="geometry">
            <Array as="points">
              <mxPoint x="-410" y="669" />
              <mxPoint x="-410" y="501" />
            </Array>
            <mxPoint x="-280" y="709" as="sourcePoint" />
            <mxPoint x="-120" y="769" as="targetPoint" />
          </mxGeometry>
        </mxCell>
        <mxCell id="fDak4gC0axPjWhtpKBPF-6" value="1..n" style="edgeLabel;html=1;align=center;verticalAlign=middle;resizable=0;points=[];" vertex="1" connectable="0" parent="1">
          <mxGeometry x="-670" y="451.3999996710527" as="geometry">
            <mxPoint x="74" y="46" as="offset" />
          </mxGeometry>
        </mxCell>
        <mxCell id="fDak4gC0axPjWhtpKBPF-7" style="edgeStyle=orthogonalEdgeStyle;rounded=0;orthogonalLoop=1;jettySize=auto;html=1;exitX=0.75;exitY=1;exitDx=0;exitDy=0;entryX=0.25;entryY=0;entryDx=0;entryDy=0;" edge="1" parent="1" source="fDak4gC0axPjWhtpKBPF-1" target="AbIhETK-aJziHINcXdsH-34">
          <mxGeometry relative="1" as="geometry">
            <mxPoint x="-120" y="768.96" as="targetPoint" />
            <mxPoint x="-120" y="709" as="sourcePoint" />
          </mxGeometry>
        </mxCell>
        <mxCell id="fDak4gC0axPjWhtpKBPF-8" value="0..n" style="edgeLabel;html=1;align=center;verticalAlign=middle;resizable=0;points=[];" vertex="1" connectable="0" parent="1">
          <mxGeometry x="-270" y="818.96" as="geometry">
            <mxPoint x="121" y="-28" as="offset" />
          </mxGeometry>
        </mxCell>
        <mxCell id="fDak4gC0axPjWhtpKBPF-9" style="edgeStyle=orthogonalEdgeStyle;rounded=0;orthogonalLoop=1;jettySize=auto;html=1;entryX=0.5;entryY=1;entryDx=0;entryDy=0;endArrow=block;endFill=0;exitX=0.5;exitY=0;exitDx=0;exitDy=0;endSize=11;" edge="1" parent="1" source="AbIhETK-aJziHINcXdsH-14" target="AbIhETK-aJziHINcXdsH-2">
          <mxGeometry relative="1" as="geometry">
            <mxPoint x="-810" y="649" as="sourcePoint" />
            <mxPoint x="-670" y="541" as="targetPoint" />
          </mxGeometry>
        </mxCell>
        <mxCell id="fDak4gC0axPjWhtpKBPF-10" style="edgeStyle=orthogonalEdgeStyle;rounded=0;orthogonalLoop=1;jettySize=auto;html=1;entryX=0.5;entryY=1;entryDx=0;entryDy=0;endArrow=block;endFill=0;exitX=0.5;exitY=0;exitDx=0;exitDy=0;endSize=11;" edge="1" parent="1" source="AbIhETK-aJziHINcXdsH-15" target="AbIhETK-aJziHINcXdsH-2">
          <mxGeometry relative="1" as="geometry">
            <mxPoint x="-950" y="769" as="sourcePoint" />
            <mxPoint x="-810" y="709" as="targetPoint" />
          </mxGeometry>
        </mxCell>
        <mxCell id="fDak4gC0axPjWhtpKBPF-11" style="edgeStyle=orthogonalEdgeStyle;rounded=0;orthogonalLoop=1;jettySize=auto;html=1;entryX=0.5;entryY=1;entryDx=0;entryDy=0;endArrow=block;endFill=0;exitX=0.5;exitY=0;exitDx=0;exitDy=0;endSize=11;" edge="1" parent="1" source="AbIhETK-aJziHINcXdsH-16" target="AbIhETK-aJziHINcXdsH-2">
          <mxGeometry relative="1" as="geometry">
            <mxPoint x="-810" y="769" as="sourcePoint" />
            <mxPoint x="-810" y="709" as="targetPoint" />
          </mxGeometry>
        </mxCell>
        <mxCell id="fDak4gC0axPjWhtpKBPF-12" style="edgeStyle=orthogonalEdgeStyle;rounded=0;orthogonalLoop=1;jettySize=auto;html=1;entryX=0.5;entryY=1;entryDx=0;entryDy=0;endArrow=block;endFill=0;exitX=0.5;exitY=0;exitDx=0;exitDy=0;endSize=11;" edge="1" parent="1" source="AbIhETK-aJziHINcXdsH-3" target="fDak4gC0axPjWhtpKBPF-1">
          <mxGeometry relative="1" as="geometry">
            <mxPoint x="-810" y="649" as="sourcePoint" />
            <mxPoint x="-670" y="541" as="targetPoint" />
            <Array as="points">
              <mxPoint x="-660" y="860" />
              <mxPoint x="-530" y="860" />
            </Array>
          </mxGeometry>
        </mxCell>
        <mxCell id="fDak4gC0axPjWhtpKBPF-13" style="edgeStyle=orthogonalEdgeStyle;rounded=0;orthogonalLoop=1;jettySize=auto;html=1;entryX=0.5;entryY=1;entryDx=0;entryDy=0;endArrow=block;endFill=0;exitX=0.5;exitY=0;exitDx=0;exitDy=0;endSize=11;" edge="1" parent="1" source="AbIhETK-aJziHINcXdsH-4" target="fDak4gC0axPjWhtpKBPF-1">
          <mxGeometry relative="1" as="geometry">
            <mxPoint x="-660" y="985" as="sourcePoint" />
            <mxPoint x="-530" y="800" as="targetPoint" />
            <Array as="points">
              <mxPoint x="-660" y="961" />
              <mxPoint x="-530" y="961" />
            </Array>
          </mxGeometry>
        </mxCell>
        <mxCell id="fDak4gC0axPjWhtpKBPF-15" style="edgeStyle=orthogonalEdgeStyle;rounded=0;orthogonalLoop=1;jettySize=auto;html=1;entryX=0.5;entryY=1;entryDx=0;entryDy=0;endArrow=block;endFill=0;exitX=0.5;exitY=0;exitDx=0;exitDy=0;endSize=11;" edge="1" parent="1" source="AbIhETK-aJziHINcXdsH-5" target="fDak4gC0axPjWhtpKBPF-1">
          <mxGeometry relative="1" as="geometry">
            <mxPoint x="-660" y="1089.25" as="sourcePoint" />
            <mxPoint x="-530" y="798.25" as="targetPoint" />
            <Array as="points">
              <mxPoint x="-660" y="1060" />
              <mxPoint x="-530" y="1060" />
            </Array>
          </mxGeometry>
        </mxCell>
        <mxCell id="fDak4gC0axPjWhtpKBPF-16" style="edgeStyle=orthogonalEdgeStyle;rounded=0;orthogonalLoop=1;jettySize=auto;html=1;entryX=0.5;entryY=1;entryDx=0;entryDy=0;endArrow=block;endFill=0;exitX=0.5;exitY=0;exitDx=0;exitDy=0;endSize=11;" edge="1" parent="1" source="AbIhETK-aJziHINcXdsH-6" target="fDak4gC0axPjWhtpKBPF-1">
          <mxGeometry relative="1" as="geometry">
            <mxPoint x="-650" y="1109" as="sourcePoint" />
            <mxPoint x="-520" y="709" as="targetPoint" />
            <Array as="points">
              <mxPoint x="-400" y="1060" />
              <mxPoint x="-530" y="1060" />
            </Array>
          </mxGeometry>
        </mxCell>
        <mxCell id="fDak4gC0axPjWhtpKBPF-17" style="edgeStyle=orthogonalEdgeStyle;rounded=0;orthogonalLoop=1;jettySize=auto;html=1;entryX=0.5;entryY=1;entryDx=0;entryDy=0;endArrow=block;endFill=0;exitX=0.5;exitY=0;exitDx=0;exitDy=0;endSize=11;" edge="1" parent="1" source="AbIhETK-aJziHINcXdsH-21" target="fDak4gC0axPjWhtpKBPF-1">
          <mxGeometry relative="1" as="geometry">
            <mxPoint x="-640" y="1119" as="sourcePoint" />
            <mxPoint x="-510" y="719" as="targetPoint" />
            <Array as="points">
              <mxPoint x="-400" y="960" />
              <mxPoint x="-530" y="960" />
            </Array>
          </mxGeometry>
        </mxCell>
        <mxCell id="fDak4gC0axPjWhtpKBPF-18" style="edgeStyle=orthogonalEdgeStyle;rounded=0;orthogonalLoop=1;jettySize=auto;html=1;endArrow=block;endFill=0;exitX=0.5;exitY=0;exitDx=0;exitDy=0;endSize=11;entryX=0.5;entryY=1;entryDx=0;entryDy=0;" edge="1" parent="1" source="AbIhETK-aJziHINcXdsH-22" target="fDak4gC0axPjWhtpKBPF-1">
          <mxGeometry relative="1" as="geometry">
            <mxPoint x="-390" y="1000" as="sourcePoint" />
            <mxPoint x="-480" y="810" as="targetPoint" />
            <Array as="points">
              <mxPoint x="-400" y="860" />
              <mxPoint x="-530" y="860" />
            </Array>
          </mxGeometry>
        </mxCell>
      </root>
    </mxGraphModel>
  </diagram>
  <diagram id="6vQT1Dj2wgs7Da54baMg" name="‫עמוד-2‬">
    <mxGraphModel dx="1050" dy="581" grid="1" gridSize="10" guides="1" tooltips="1" connect="1" arrows="1" fold="1" page="1" pageScale="1" pageWidth="827" pageHeight="1169" math="0" shadow="0">
      <root>
        <mxCell id="0" />
        <mxCell id="1" parent="0" />
      </root>
    </mxGraphModel>
  </diagram>
</mxfile>
